<svg width="96" height="96" viewBox="0 0 96 96" fill="none" xmlns="http://www.w3.org/2000/svg">
<path d="M48 96C74.5097 96 96 74.5097 96 48C96 21.4903 74.5097 0 48 0C21.4903 0 0 21.4903 0 48C0 74.5097 21.4903 96 48 96Z" fill="#F9FAFB"/>
<path d="M48 16L42.0741 19.4289L25.9259 28.8211L20 32.25V64.75L25.9259 68.1789L42.2222 77.5711L48.1481 81L54.0741 77.5711L70.0741 68.1789L76 64.75V32.25L70.0741 28.8211L53.9259 19.4289L48 16ZM31.8519 57.8922V39.1078L48 29.7156L64.1481 39.1078V57.8922L48 67.2844L31.8519 57.8922Z" fill="#2A5ADA"/>
<path d="M48 95C22.0426 95 1 73.9574 1 48H-1C-1 75.062 20.938 97 48 97V95ZM95 48C95 73.9574 73.9574 95 48 95V97C75.062 97 97 75.062 97 48H95ZM48 1C73.9574 1 95 22.0426 95 48H97C97 20.938 75.062 -1 48 -1V1ZM48 -1C20.938 -1 -1 20.938 -1 48H1C1 22.0426 22.0426 1 48 1V-1Z" fill="white" fill-opacity="0.15"/>
</svg>
