<svg width="48" height="48" viewBox="0 0 48 48" fill="none" xmlns="http://www.w3.org/2000/svg">
<rect width="48" height="48" rx="8" fill="white"/>
<path fill-rule="evenodd" clip-rule="evenodd" d="M14.1319 31.9817C13.4296 31.5521 13 30.787 13 29.9655V25.3782C13 25.2026 13.047 25.0333 13.1348 24.8828C13.4076 24.4124 14.0128 24.2525 14.4831 24.5285L24.8369 30.5644C25.4421 30.9187 25.8152 31.5647 25.8152 32.267V37.0205C25.8152 37.2369 25.7557 37.4532 25.6428 37.6382C25.301 38.1963 24.5735 38.3719 24.0154 38.0301L14.1319 31.9817ZM29.5654 23.2711C30.1706 23.6254 30.5437 24.2713 30.5437 24.9737V34.6187C30.5437 34.904 30.3901 35.1674 30.1424 35.3054L27.8753 36.5815C27.8471 36.5972 27.8157 36.6098 27.7844 36.6192V31.2636C27.7844 30.5707 27.4206 29.9279 26.8249 29.5704L17.7316 24.1302V18.0849C17.7316 17.9093 17.7786 17.7399 17.8665 17.5894C18.1393 17.1191 18.7444 16.9592 19.2148 17.2351L29.5654 23.2711ZM34.0963 16.1471C34.7047 16.4983 35.0778 17.1505 35.0778 17.8528V31.9409C35.0778 32.2294 34.9179 32.4959 34.6639 32.6339L32.516 33.794V23.986C32.516 23.293 32.1523 22.6534 31.5597 22.2959L22.2657 16.7209V10.986C22.2657 10.8104 22.3128 10.6411 22.3974 10.4905C22.6702 10.0202 23.2754 9.86029 23.7457 10.1331L34.0963 16.1471Z" fill="#00D395"/>
</svg>
