<svg width="20" height="20" viewBox="0 0 20 20" fill="none" xmlns="http://www.w3.org/2000/svg">
<path d="M13 18H14V20H0V18H1V2C1 0.9 1.9 0 3 0H11C11.5304 0 12.0391 0.210714 12.4142 0.585786C12.7893 0.960859 13 1.46957 13 2V18ZM3 2V8H11V2H3ZM13 10H14C14.5304 10 15.0391 10.2107 15.4142 10.5858C15.7893 10.9609 16 11.4696 16 12V15C16 15.2652 16.1054 15.5196 16.2929 15.7071C16.4804 15.8946 16.7348 16 17 16C17.2652 16 17.5196 15.8946 17.7071 15.7071C17.8946 15.5196 18 15.2652 18 15V10L16 8V6L14 4L15 3L20 8V15C20 15.7956 19.6839 16.5587 19.1213 17.1213C18.5587 17.6839 17.7956 18 17 18C16.2044 18 15.4413 17.6839 14.8787 17.1213C14.3161 16.5587 14 15.7956 14 15V12H13V10Z" fill="white"/>
</svg>
