<svg width="32" height="32" viewBox="0 0 32 32" fill="none" xmlns="http://www.w3.org/2000/svg">
<path fill-rule="evenodd" clip-rule="evenodd" d="M24 15.9997C24 16.2649 23.8946 16.5193 23.7071 16.7068C23.5196 16.8944 23.2652 16.9997 23 16.9997H11.414L15.708 21.2917C15.8958 21.4795 16.0013 21.7342 16.0013 21.9997C16.0013 22.2653 15.8958 22.5199 15.708 22.7077C15.5202 22.8955 15.2656 23.001 15 23.001C14.7344 23.001 14.4798 22.8955 14.292 22.7077L8.292 16.7077C8.19887 16.6148 8.12499 16.5045 8.07458 16.383C8.02416 16.2615 7.99821 16.1312 7.99821 15.9997C7.99821 15.8682 8.02416 15.7379 8.07458 15.6164C8.12499 15.495 8.19887 15.3846 8.292 15.2917L14.292 9.29171C14.4798 9.10394 14.7344 8.99845 15 8.99845C15.2656 8.99845 15.5202 9.10394 15.708 9.29171C15.8958 9.47949 16.0013 9.73416 16.0013 9.99971C16.0013 10.2653 15.8958 10.5199 15.708 10.7077L11.414 14.9997L23 14.9997C23.2652 14.9997 23.5196 15.1051 23.7071 15.2926C23.8946 15.4801 24 15.7345 24 15.9997Z" fill="white"/>
</svg>
