<svg width="96" height="96" viewBox="0 0 96 96" fill="none" xmlns="http://www.w3.org/2000/svg">
<g clip-path="url(#clip0)">
<g clip-path="url(#clip1)">
<g filter="url(#filter0_i)">
<path d="M48.0727 95.2674C73.6056 95.2674 94.304 74.569 94.304 49.0361C94.304 23.5034 73.6056 2.8049 48.0727 2.8049C22.5399 2.8049 1.84143 23.5034 1.84143 49.0361C1.84143 74.569 22.5399 95.2674 48.0727 95.2674Z" fill="#00D395"/>
</g>
<path d="M48.073 91.8214C71.7026 91.8214 90.8583 72.6658 90.8583 49.0361C90.8583 25.4065 71.7026 6.25085 48.073 6.25085C24.4433 6.25085 5.28772 25.4065 5.28772 49.0361C5.28772 72.6658 24.4433 91.8214 48.073 91.8214Z" fill="url(#paint0_linear)"/>
<path fill-rule="evenodd" clip-rule="evenodd" d="M28.5683 64.5493C27.1855 63.7035 26.3397 62.1973 26.3397 60.5798V51.5483C26.3397 51.2026 26.4323 50.8692 26.6052 50.5729C27.1422 49.6469 28.3337 49.332 29.2598 49.8754L49.6444 61.7589C50.8358 62.4566 51.5705 63.7282 51.5705 65.1111V74.4698C51.5705 74.8957 51.4532 75.3217 51.2309 75.6859C50.558 76.7848 49.1258 77.1305 48.0269 76.4576L28.5683 64.5493ZM58.9539 47.3998C60.1453 48.0974 60.88 49.3691 60.88 50.7519V69.7411C60.88 70.3028 60.5775 70.8214 60.0898 71.093L55.6264 73.6056C55.5709 73.6364 55.5091 73.6611 55.4474 73.6796V63.1356C55.4474 61.7713 54.7312 60.5058 53.5583 59.802L35.6554 49.0914V37.1892C35.6554 36.8435 35.748 36.5101 35.9209 36.2137C36.4579 35.2878 37.6494 34.9729 38.5755 35.5162L58.9539 47.3998ZM67.8745 33.3741C69.0721 34.0655 69.8068 35.3495 69.8068 36.7323V64.4691C69.8068 65.037 69.4919 65.5617 68.9918 65.8333L64.7631 68.1174V48.8073C64.7631 47.443 64.0469 46.1837 62.8802 45.4799L44.5822 34.5037V23.2128C44.5822 22.8671 44.6748 22.5337 44.8415 22.2374C45.3785 21.3114 46.57 20.9965 47.496 21.5337L67.8745 33.3741Z" fill="#F9FAFB"/>
<path d="M48.0379 96.0015C73.9752 96.0015 95.0015 74.9752 95.0015 49.0379C95.0015 23.1005 73.9752 2.07422 48.0379 2.07422C22.1005 2.07422 1.07422 23.1005 1.07422 49.0379C1.07422 74.9752 22.1005 96.0015 48.0379 96.0015Z" fill="#070A0E"/>
<path fill-rule="evenodd" clip-rule="evenodd" d="M28.2221 64.7948C26.8174 63.9356 25.9583 62.4055 25.9583 60.7624V51.5878C25.9583 51.2366 26.0523 50.898 26.2279 50.597C26.7735 49.6563 27.9839 49.3365 28.9245 49.8884L49.6321 61.9603C50.8424 62.6689 51.5886 63.9608 51.5886 65.3655V74.8724C51.5886 75.3052 51.4696 75.7379 51.2438 76.1078C50.5602 77.2241 49.1053 77.5753 47.989 76.8918L28.2221 64.7948ZM59.089 47.3736C60.2994 48.0823 61.0457 49.3741 61.0457 50.7789V70.0688C61.0457 70.6395 60.7384 71.1663 60.243 71.4422L55.7089 73.9945C55.6525 74.0258 55.5897 74.051 55.527 74.0698V63.3587C55.527 61.9728 54.7995 60.6872 53.608 59.9724L35.4215 49.0919V37.0012C35.4215 36.6501 35.5155 36.3114 35.6912 36.0104C36.2368 35.0697 37.4471 34.7499 38.3878 35.3018L59.089 47.3736ZM68.1509 33.1257C69.3676 33.828 70.1139 35.1325 70.1139 36.5372V64.7133C70.1139 65.2902 69.794 65.8233 69.2861 66.0992L64.9903 68.4195V48.8035C64.9903 47.4176 64.2628 46.1383 63.0776 45.4233L44.4897 34.2733V22.8035C44.4897 22.4522 44.5838 22.1136 44.7531 21.8126C45.2987 20.872 46.509 20.5521 47.4497 21.0977L68.1509 33.1257Z" fill="#00D395"/>
</g>
</g>
<defs>
<filter id="filter0_i" x="1.84143" y="2.57519" width="92.4625" height="92.6922" filterUnits="userSpaceOnUse" color-interpolation-filters="sRGB">
<feFlood flood-opacity="0" result="BackgroundImageFix"/>
<feBlend mode="normal" in="SourceGraphic" in2="BackgroundImageFix" result="shape"/>
<feColorMatrix in="SourceAlpha" type="matrix" values="0 0 0 0 0 0 0 0 0 0 0 0 0 0 0 0 0 0 127 0" result="hardAlpha"/>
<feOffset dy="-0.689125"/>
<feGaussianBlur stdDeviation="0.114854"/>
<feComposite in2="hardAlpha" operator="arithmetic" k2="-1" k3="1"/>
<feColorMatrix type="matrix" values="0 0 0 0 0.0699479 0 0 0 0 0.9875 0 0 0 0 0.717887 0 0 0 1 0"/>
<feBlend mode="normal" in2="shape" result="effect1_innerShadow"/>
</filter>
<linearGradient id="paint0_linear" x1="48.073" y1="6.25085" x2="48.073" y2="91.8214" gradientUnits="userSpaceOnUse">
<stop stop-color="#141E27"/>
<stop offset="1" stop-color="#141E27"/>
</linearGradient>
<clipPath id="clip0">
<rect width="94" height="95" fill="white" transform="translate(1 1)"/>
</clipPath>
<clipPath id="clip1">
<rect width="94" height="94" fill="white" transform="translate(1 2)"/>
</clipPath>
</defs>
</svg>
