<svg width="32" height="32" viewBox="0 0 32 32" fill="none" xmlns="http://www.w3.org/2000/svg">
<path fill-rule="evenodd" clip-rule="evenodd" d="M8 16.0003C8 15.7351 8.10536 15.4807 8.29289 15.2932C8.48043 15.1056 8.73478 15.0003 9 15.0003H20.586L16.292 10.7083C16.1042 10.5205 15.9987 10.2658 15.9987 10.0003C15.9987 9.73474 16.1042 9.48006 16.292 9.29229C16.4798 9.10451 16.7344 8.99902 17 8.99902C17.2656 8.99902 17.5202 9.10451 17.708 9.29229L23.708 15.2923C23.8011 15.3852 23.875 15.4955 23.9254 15.617C23.9758 15.7385 24.0018 15.8688 24.0018 16.0003C24.0018 16.1318 23.9758 16.2621 23.9254 16.3836C23.875 16.505 23.8011 16.6154 23.708 16.7083L17.708 22.7083C17.5202 22.8961 17.2656 23.0015 17 23.0015C16.7344 23.0015 16.4798 22.8961 16.292 22.7083C16.1042 22.5205 15.9987 22.2658 15.9987 22.0003C15.9987 21.7347 16.1042 21.4801 16.292 21.2923L20.586 17.0003H9C8.73478 17.0003 8.48043 16.8949 8.29289 16.7074C8.10536 16.5199 8 16.2655 8 16.0003Z" fill="white"/>
</svg>
