<svg width="104" height="104" viewBox="0 0 104 104" fill="none" xmlns="http://www.w3.org/2000/svg">
<g filter="url(#filter0_d)">
<path d="M52 95C61.2957 95 70.3827 92.2435 78.1118 87.0791C85.8409 81.9147 91.865 74.5743 95.4223 65.9861C98.9796 57.398 99.9104 47.9479 98.0969 38.8308C96.2834 29.7137 91.8071 21.3391 85.234 14.766C78.6609 8.19293 70.2863 3.71662 61.1692 1.90311C52.0521 0.0896096 42.602 1.02036 34.0139 4.57768C25.4257 8.135 18.0854 14.1591 12.9209 21.8882C7.7565 29.6173 5 38.7043 5 48C5 60.4652 9.95177 72.4198 18.766 81.234C27.5802 90.0482 39.5348 95 52 95Z" fill="#2775C9"/>
<path d="M64.9433 55.4691C64.9433 48.615 60.7721 46.3041 52.7037 45.1977C46.7406 44.336 45.595 42.9358 45.595 40.155C45.595 37.3741 47.6121 35.641 51.47 35.641C54.9852 35.641 57.0121 36.865 57.8444 39.6948C57.9327 40.0045 58.1186 40.2775 58.3743 40.4732C58.6301 40.669 58.9421 40.7772 59.2642 40.7816H62.3485C62.55 40.7858 62.7499 40.7455 62.934 40.6637C63.1181 40.5818 63.2819 40.4603 63.4138 40.3079C63.5456 40.1555 63.6422 39.9759 63.6967 39.782C63.7512 39.588 63.7623 39.3843 63.7292 39.1856C62.75 34.7108 59.7342 32.0181 55.0048 31.176V26.4564C55.0048 26.0669 54.85 25.6933 54.5746 25.4179C54.2992 25.1424 53.9256 24.9877 53.536 24.9877H50.5985C50.209 24.9877 49.8354 25.1424 49.56 25.4179C49.2845 25.6933 49.1298 26.0669 49.1298 26.4564V31.0095C43.2548 31.832 39.5437 35.7095 39.5437 40.6837C39.5437 47.1168 43.4604 49.6137 51.6462 50.7202C57.2177 51.6308 58.8039 52.8352 58.8039 55.9979C58.8039 59.1606 56.1112 61.2854 52.3121 61.2854C47.191 61.2854 45.4579 59.0431 44.8802 56.135C44.813 55.8013 44.6335 55.5007 44.3716 55.2833C44.1097 55.0659 43.7812 54.9449 43.4408 54.9404H40.0921C39.8923 54.9391 39.6946 54.9815 39.5129 55.0647C39.3312 55.1478 39.1698 55.2697 39.0402 55.4217C38.9105 55.5738 38.8157 55.7523 38.7623 55.9449C38.7089 56.1374 38.6982 56.3393 38.731 56.5364C39.5829 61.4323 42.726 65.016 49.1298 65.8777V70.5189C49.1298 70.9085 49.2845 71.2821 49.56 71.5575C49.8354 71.8329 50.209 71.9877 50.5985 71.9877H53.536C53.9256 71.9877 54.2992 71.8329 54.5746 71.5575C54.85 71.2821 55.0048 70.9085 55.0048 70.5189V65.8777C61.0756 64.9181 64.9433 60.7273 64.9433 55.4691Z" fill="white"/>
<path d="M41.9909 76.0806C36.3332 74.0147 31.4474 70.2595 27.9953 65.3239C24.5432 60.3883 22.6917 54.5108 22.6917 48.4877C22.6917 42.4647 24.5432 36.5872 27.9953 31.6516C31.4474 26.7159 36.3332 22.9608 41.9909 20.8948C42.3536 20.7356 42.6643 20.4777 42.8877 20.1505C43.111 19.8233 43.2379 19.44 43.254 19.0442V16.3025C43.2775 16.0597 43.2368 15.815 43.1358 15.593C43.0348 15.371 42.8772 15.1794 42.6788 15.0375C42.4804 14.8956 42.2481 14.8085 42.0053 14.7847C41.7626 14.761 41.5178 14.8016 41.2957 14.9023C34.1709 17.1731 27.9529 21.6509 23.5405 27.6883C19.1281 33.7257 16.75 41.0098 16.75 48.4877C16.75 55.9656 19.1281 63.2498 23.5405 69.2872C27.9529 75.3246 34.1709 79.8023 41.2957 82.0731C41.5178 82.1739 41.7626 82.2145 42.0053 82.1907C42.2481 82.167 42.4804 82.0798 42.6788 81.938C42.8772 81.7961 43.0348 81.6045 43.1358 81.3825C43.2368 81.1604 43.2775 80.9157 43.254 80.6729V77.9313C43.2379 77.5355 43.111 77.1521 42.8877 76.8249C42.6643 76.4978 42.3536 76.2399 41.9909 76.0806Z" fill="white"/>
<path d="M62.8368 14.9023C62.6147 14.8016 62.3699 14.761 62.1272 14.7847C61.8844 14.8085 61.6522 14.8956 61.4537 15.0375C61.2553 15.1794 61.0977 15.371 60.9967 15.593C60.8958 15.815 60.855 16.0597 60.8785 16.3025V19.0442C60.8946 19.44 61.0215 19.8233 61.2448 20.1505C61.4682 20.4777 61.7789 20.7356 62.1416 20.8948C67.7993 22.9608 72.6852 26.7159 76.1373 31.6516C79.5894 36.5872 81.4408 42.4647 81.4408 48.4877C81.4408 54.5108 79.5894 60.3883 76.1373 65.3239C72.6852 70.2595 67.7993 74.0147 62.1416 76.0806C61.767 76.2229 61.4451 76.4765 61.2192 76.8075C60.9934 77.1384 60.8744 77.5306 60.8785 77.9313V80.6729C60.855 80.9157 60.8958 81.1604 60.9967 81.3825C61.0977 81.6045 61.2553 81.7961 61.4537 81.938C61.6522 82.0798 61.8844 82.167 62.1272 82.1907C62.3699 82.2145 62.6147 82.1739 62.8368 82.0731C69.9616 79.8023 76.1797 75.3246 80.5921 69.2872C85.0044 63.2498 87.3825 55.9656 87.3825 48.4877C87.3825 41.0098 85.0044 33.7257 80.5921 27.6883C76.1797 21.6509 69.9616 17.1731 62.8368 14.9023Z" fill="white"/>
</g>
<defs>
<filter id="filter0_d" x="0" y="0" width="104" height="104" filterUnits="userSpaceOnUse" color-interpolation-filters="sRGB">
<feFlood flood-opacity="0" result="BackgroundImageFix"/>
<feColorMatrix in="SourceAlpha" type="matrix" values="0 0 0 0 0 0 0 0 0 0 0 0 0 0 0 0 0 0 127 0"/>
<feOffset dy="4"/>
<feGaussianBlur stdDeviation="2"/>
<feColorMatrix type="matrix" values="0 0 0 0 0 0 0 0 0 0 0 0 0 0 0 0 0 0 0.25 0"/>
<feBlend mode="normal" in2="BackgroundImageFix" result="effect1_dropShadow"/>
<feBlend mode="normal" in="SourceGraphic" in2="effect1_dropShadow" result="shape"/>
</filter>
</defs>
</svg>
