<svg width="16" height="16" viewBox="0 0 16 16" fill="none" xmlns="http://www.w3.org/2000/svg">
<path d="M3.52869 3.52868C3.65371 3.4037 3.82324 3.33349 4.00002 3.33349C4.1768 3.33349 4.34634 3.4037 4.47135 3.52868L8.00002 7.05735L11.5287 3.52868C11.5902 3.46501 11.6637 3.41422 11.7451 3.37928C11.8264 3.34434 11.9139 3.32595 12.0024 3.32518C12.0909 3.32441 12.1787 3.34128 12.2607 3.3748C12.3426 3.40832 12.417 3.45782 12.4796 3.52042C12.5422 3.58301 12.5917 3.65745 12.6252 3.73938C12.6588 3.82131 12.6756 3.9091 12.6749 3.99761C12.6741 4.08613 12.6557 4.17361 12.6208 4.25495C12.5858 4.33629 12.535 4.40985 12.4714 4.47135L8.94269 8.00001L12.4714 11.5287C12.5928 11.6544 12.66 11.8228 12.6585 11.9976C12.657 12.1724 12.5868 12.3396 12.4632 12.4632C12.3396 12.5868 12.1724 12.6569 11.9976 12.6585C11.8228 12.66 11.6544 12.5928 11.5287 12.4713L8.00002 8.94268L4.47135 12.4713C4.34562 12.5928 4.17722 12.66 4.00242 12.6585C3.82762 12.6569 3.66041 12.5868 3.53681 12.4632C3.4132 12.3396 3.34309 12.1724 3.34157 11.9976C3.34005 11.8228 3.40725 11.6544 3.52869 11.5287L7.05735 8.00001L3.52869 4.47135C3.40371 4.34633 3.3335 4.17679 3.3335 4.00001C3.3335 3.82324 3.40371 3.6537 3.52869 3.52868Z" fill="#586069"/>
</svg>
